<svg id="hando" xmlns="http://www.w3.org/2000/svg" viewBox="0 0 590 94.67"><defs><style>.cls-1{fill:{{ include.fill }};}</style></defs><title>Untitled-4</title><path class="cls-1" d="M24.87,96H5.27V4.59h19.6V42.72H61.69V4.59H81.53V96H61.69V58H24.87V96Z" transform="translate(-5.27 -3.27)"/><path class="cls-1" d="M185.9,75.71H152.31L145.62,96H126.85L158.77,4.59h22L213.15,96H192.59Zm-20.44-41L157,61.36h24.14l-8.37-26.53a120,120,0,0,1-3.47-13.39H169C168.93,21.92,167.85,27.3,165.46,34.71Z" transform="translate(-5.27 -3.27)"/><path class="cls-1" d="M258.42,4.59h21.64l29.52,49.48a78.88,78.88,0,0,1,6.57,13.63h0.36V4.59h17.93V96H313.76L283.4,45.58a79.64,79.64,0,0,1-6.93-13.87h-0.36V96H258.42V4.59Z" transform="translate(-5.27 -3.27)"/><path class="cls-1" d="M386.56,4.59h31.2c27,0,45.78,13.27,45.78,44.58S445,96,418.24,96H386.56V4.59ZM416.8,81.2c15.78,0,25.94-7.89,25.94-31.55,0-22.59-10.28-30.48-25.34-30.48H406.17v62H416.8Z" transform="translate(-5.27 -3.27)"/><path class="cls-1" d="M552.12,3.27c26.77,0,43.15,16.85,43.15,47.33,0,30.12-17,47.33-43.15,47.33C524.75,97.94,509,81,509,50.6,509,20.48,526.54,3.27,552.12,3.27Zm22,47.33c0-21.87-9.08-33.23-22-33.23-13.87,0-21.87,11.12-21.87,33.23s7.53,33,21.87,33C566,83.59,574.11,72.36,574.11,50.6Z" transform="translate(-5.27 -3.27)"/></svg>