<svg id="Layer_1" data-name="Layer 1" width="{{ include.width }}" xmlns="http://www.w3.org/2000/svg" viewBox="0 0 300 52.07"><defs><style>.cls-1{fill:{{ include.fill }}; height: auto; width:{{ include.width }};}</style></defs><path class="cls-1" d="M10.78,51H0V0.72H10.78v21H31v-21H41.95V51H31V30.11H10.78V51Z"/><path class="cls-1" d="M93.23,39.84H74.75L71.07,51H60.75L78.3,0.72H90.4L108.22,51H96.91ZM82,17.29L77.31,32H90.6L86,17.36A66,66,0,0,1,84.09,10H84C83.89,10.26,83.3,13.21,82,17.29Z"/><path class="cls-1" d="M127,0.72h11.9l16.24,27.22a43.52,43.52,0,0,1,3.62,7.5h0.2V0.72h9.86V51H157.42l-16.7-27.75a43.89,43.89,0,0,1-3.81-7.63h-0.2V51H127V0.72Z"/><path class="cls-1" d="M191.33,0.72h17.16c14.86,0,25.18,7.3,25.18,24.52S223.48,51,208.75,51H191.33V0.72ZM208,42.87c8.68,0,14.27-4.34,14.27-17.36,0-12.43-5.65-16.77-13.94-16.77h-6.18V42.87H208Z"/><path class="cls-1" d="M276.26,0C291,0,300,9.27,300,26c0,16.57-9.34,26-23.74,26-15.06,0-23.73-9.34-23.73-26S262.19,0,276.26,0Zm12.1,26c0-12-5-18.28-12.1-18.28-7.63,0-12,6.11-12,18.28s4.14,18.15,12,18.15C283.89,44.18,288.36,38,288.36,26Z"/></svg>